<svg width="11" height="11" viewBox="0 0 11 11" fill="none" xmlns="http://www.w3.org/2000/svg">
<path d="M9.7554 3.79365L7.02796 3.39727L5.80872 0.925491C5.77542 0.857815 5.72064 0.80303 5.65296 0.769729C5.48324 0.68594 5.27699 0.755764 5.19212 0.925491L3.97288 3.39727L1.24544 3.79365C1.17025 3.8044 1.1015 3.83985 1.04886 3.89356C0.985226 3.95896 0.95016 4.04696 0.951369 4.1382C0.952578 4.22945 0.989961 4.31648 1.05531 4.38018L3.02865 6.3041L2.56244 9.0208C2.5515 9.084 2.5585 9.14899 2.58262 9.20842C2.60675 9.26784 2.64704 9.31932 2.69893 9.35701C2.75083 9.3947 2.81224 9.41709 2.87621 9.42165C2.94019 9.42621 3.00416 9.41276 3.06087 9.38281L5.50042 8.1002L7.93997 9.38281C8.00658 9.41826 8.08392 9.43008 8.15804 9.41719C8.34495 9.38496 8.47064 9.20772 8.43841 9.0208L7.9722 6.3041L9.94554 4.38018C9.99925 4.32754 10.0347 4.25879 10.0454 4.1836C10.0744 3.99561 9.94339 3.82158 9.7554 3.79365Z" fill="#FFCD46"/>
</svg>
