<svg width="12" height="12" viewBox="0 0 12 12" fill="none" xmlns="http://www.w3.org/2000/svg">
<g clip-path="url(#clip0_489_598)">
<path d="M11 5.5H8.915L10.535 3.88L9.83 3.17L7.5 5.5H6.5V4.5L8.83 2.17L8.12 1.465L6.5 3.085V1H5.5V3.085L3.88 1.465L3.17 2.17L5.5 4.5V5.5H4.5L2.17 3.17L1.465 3.88L3.085 5.5H1V6.5H3.085L1.465 8.12L2.17 8.83L4.5 6.5H5.5V7.5L3.17 9.83L3.88 10.535L5.5 8.915V11H6.5V8.915L8.12 10.535L8.83 9.83L6.5 7.5V6.5H7.5L9.83 8.83L10.535 8.12L8.915 6.5H11V5.5Z" fill="#8F8F8F"/>
</g>
<defs>
<clipPath id="clip0_489_598">
<rect width="12" height="12" fill="white"/>
</clipPath>
</defs>
</svg>
