<svg width="16" height="16" viewBox="0 0 16 16" fill="none" xmlns="http://www.w3.org/2000/svg">
<g clip-path="url(#clip0_489_3249)">
<path d="M8.00219 1.33441C5.42219 1.33441 3.33553 3.42108 3.33553 6.00107C3.33553 8.78106 6.28219 12.6144 7.49552 14.0744C7.76219 14.3944 8.24885 14.3944 8.51552 14.0744C9.72218 12.6144 12.6688 8.78106 12.6688 6.00107C12.6688 3.42108 10.5822 1.33441 8.00219 1.33441ZM8.00219 7.66773C7.08219 7.66773 6.33552 6.92107 6.33552 6.00107C6.33552 5.08107 7.08219 4.33441 8.00219 4.33441C8.92218 4.33441 9.66885 5.08107 9.66885 6.00107C9.66885 6.92107 8.92218 7.66773 8.00219 7.66773Z" fill="#474747"/>
</g>
<defs>
<clipPath id="clip0_489_3249">
<rect width="15.5147" height="15.5147" fill="white" transform="scale(1.03128)"/>
</clipPath>
</defs>
</svg>
