<svg width="96" height="23" viewBox="0 0 96 23" fill="none" xmlns="http://www.w3.org/2000/svg">
<rect width="22.8571" height="22.8571" rx="11.3904" fill="#F8F9FA"/>
<path d="M12.2255 16.5694V11.886H13.8055L14.0403 10.0522H12.2255V8.88425C12.2255 8.3551 12.3729 7.99282 13.1323 7.99282H14.0946V6.35796C13.6264 6.30779 13.1558 6.28356 12.6849 6.28539C11.2883 6.28539 10.3295 7.13796 10.3295 8.7031V10.0488H8.75975V11.8825H10.3329V16.5694H12.2255Z" fill="#212529"/>
<rect x="36.5714" width="22.8571" height="22.8571" rx="11.3904" fill="#F8F9FA"/>
<g clip-path="url(#clip0_0_30)">
<path fill-rule="evenodd" clip-rule="evenodd" d="M45.4078 5.18015C46.0781 5.14929 46.2918 5.14244 47.9993 5.14244C49.7067 5.14244 49.9204 5.14986 50.5901 5.18015C51.2598 5.21043 51.717 5.31729 52.117 5.47215C52.5358 5.63043 52.9158 5.87786 53.2301 6.19786C53.5501 6.51158 53.797 6.89101 53.9547 7.31043C54.1101 7.71043 54.2164 8.16758 54.2473 8.83615C54.2781 9.50758 54.285 9.72129 54.285 11.4281C54.285 13.1356 54.2775 13.3493 54.2473 14.0196C54.217 14.6881 54.1101 15.1453 53.9547 15.5453C53.797 15.9648 53.5497 16.3448 53.2301 16.659C52.9158 16.979 52.5358 17.2259 52.117 17.3836C51.717 17.539 51.2598 17.6453 50.5913 17.6761C49.9204 17.707 49.7067 17.7139 47.9993 17.7139C46.2918 17.7139 46.0781 17.7064 45.4078 17.6761C44.7393 17.6459 44.2821 17.539 43.8821 17.3836C43.4626 17.2258 43.0826 16.9786 42.7684 16.659C42.4486 16.3451 42.2012 15.9652 42.0433 15.5459C41.8884 15.1459 41.7821 14.6887 41.7513 14.0201C41.7204 13.3487 41.7135 13.135 41.7135 11.4281C41.7135 9.72072 41.721 9.507 41.7513 8.83729C41.7815 8.16758 41.8884 7.71043 42.0433 7.31043C42.2014 6.89105 42.449 6.51118 42.769 6.19729C43.0827 5.87758 43.4624 5.63012 43.8815 5.47215C44.2815 5.31729 44.7387 5.21101 45.4073 5.18015H45.4078ZM50.5393 6.31158C49.8764 6.28129 49.6775 6.27501 47.9993 6.27501C46.321 6.27501 46.1221 6.28129 45.4593 6.31158C44.8461 6.33958 44.5135 6.44186 44.2918 6.52815C43.9987 6.64243 43.789 6.77786 43.569 6.99786C43.3604 7.20075 43.1999 7.44774 43.0993 7.72072C43.013 7.94243 42.9107 8.275 42.8827 8.88815C42.8524 9.551 42.8461 9.74986 42.8461 11.4281C42.8461 13.1064 42.8524 13.3053 42.8827 13.9681C42.9107 14.5813 43.013 14.9139 43.0993 15.1356C43.1998 15.4081 43.3604 15.6556 43.569 15.8584C43.7718 16.067 44.0193 16.2276 44.2918 16.3281C44.5135 16.4144 44.8461 16.5167 45.4593 16.5447C46.1221 16.575 46.3204 16.5813 47.9993 16.5813C49.6781 16.5813 49.8764 16.575 50.5393 16.5447C51.1524 16.5167 51.485 16.4144 51.7067 16.3281C51.9998 16.2139 52.2095 16.0784 52.4295 15.8584C52.6381 15.6556 52.7987 15.4081 52.8993 15.1356C52.9855 14.9139 53.0878 14.5813 53.1158 13.9681C53.1461 13.3053 53.1524 13.1064 53.1524 11.4281C53.1524 9.74986 53.1461 9.551 53.1158 8.88815C53.0878 8.275 52.9855 7.94243 52.8993 7.72072C52.785 7.42758 52.6495 7.21786 52.4295 6.99786C52.2266 6.78933 51.9797 6.62884 51.7067 6.52815C51.485 6.44186 51.1524 6.33958 50.5393 6.31158ZM47.1964 13.3659C47.6448 13.5525 48.144 13.5777 48.6089 13.4371C49.0738 13.2966 49.4755 12.999 49.7453 12.5951C50.0152 12.1913 50.1364 11.7064 50.0884 11.2231C50.0404 10.7398 49.8261 10.2881 49.4821 9.94529C49.2628 9.72613 48.9977 9.55833 48.7057 9.45395C48.4138 9.34957 48.1024 9.31121 47.7938 9.34164C47.4853 9.37207 47.1873 9.47053 46.9214 9.62994C46.6555 9.78934 46.4283 10.0057 46.256 10.2635C46.0837 10.5213 45.9708 10.814 45.9253 11.1207C45.8797 11.4274 45.9028 11.7403 45.9927 12.037C46.0826 12.3337 46.2372 12.6068 46.4454 12.8366C46.6535 13.0663 46.91 13.2471 47.1964 13.3659ZM45.7147 9.14358C46.0147 8.84356 46.3709 8.60558 46.7629 8.44321C47.1548 8.28084 47.575 8.19728 47.9993 8.19728C48.4235 8.19728 48.8437 8.28084 49.2357 8.44321C49.6276 8.60558 49.9838 8.84356 50.2838 9.14358C50.5838 9.44359 50.8218 9.79976 50.9842 10.1917C51.1466 10.5837 51.2301 11.0039 51.2301 11.4281C51.2301 11.8524 51.1466 12.2726 50.9842 12.6645C50.8218 13.0565 50.5838 13.4127 50.2838 13.7127C49.6779 14.3186 48.8561 14.659 47.9993 14.659C47.1424 14.659 46.3206 14.3186 45.7147 13.7127C45.1088 13.1068 44.7684 12.285 44.7684 11.4281C44.7684 10.5713 45.1088 9.74948 45.7147 9.14358ZM51.9467 8.67843C52.021 8.6083 52.0805 8.52397 52.1217 8.43042C52.1629 8.33687 52.1849 8.23602 52.1863 8.13382C52.1878 8.03163 52.1688 7.93017 52.1304 7.83547C52.092 7.74076 52.0349 7.65473 51.9627 7.58246C51.8904 7.51019 51.8044 7.45315 51.7096 7.41473C51.6149 7.37631 51.5135 7.35728 51.4113 7.35877C51.3091 7.36026 51.2082 7.38224 51.1147 7.4234C51.0211 7.46457 50.9368 7.52409 50.8667 7.59843C50.7303 7.74302 50.6556 7.93507 50.6585 8.13382C50.6614 8.33257 50.7416 8.52236 50.8822 8.66291C51.0227 8.80347 51.2125 8.88371 51.4113 8.8866C51.61 8.8895 51.8021 8.81483 51.9467 8.67843Z" fill="#212529"/>
</g>
<rect x="73.1428" width="22.8571" height="22.8571" rx="11.3904" fill="#F8F9FA"/>
<g clip-path="url(#clip1_0_30)">
<path d="M91.2246 7.39204C90.7475 7.60347 90.2349 7.74633 89.696 7.8109C90.252 7.47821 90.668 6.9546 90.8663 6.33776C90.3439 6.64804 89.7722 6.86644 89.176 6.98347C88.7751 6.55539 88.2441 6.27166 87.6654 6.17631C87.0866 6.08097 86.4927 6.17935 85.9756 6.45619C85.4585 6.73302 85.0473 7.17282 84.8058 7.7073C84.5643 8.24178 84.506 8.84104 84.64 9.41204C83.5816 9.3589 82.5461 9.08378 81.6008 8.60456C80.6556 8.12533 79.8217 7.45271 79.1532 6.63033C78.9246 7.02461 78.7932 7.48176 78.7932 7.96861C78.7929 8.4069 78.9008 8.83847 79.1074 9.22503C79.3139 9.6116 79.6127 9.94121 79.9772 10.1846C79.5545 10.1712 79.1411 10.0569 78.7715 9.85147V9.88576C78.7714 10.5005 78.984 11.0963 79.3733 11.572C79.7625 12.0478 80.3044 12.3743 80.9069 12.496C80.5148 12.6022 80.1037 12.6178 79.7046 12.5418C79.8746 13.0707 80.2057 13.5332 80.6517 13.8646C81.0976 14.1959 81.636 14.3796 82.1915 14.3898C81.2485 15.13 80.084 15.5315 78.8852 15.5298C78.6728 15.5298 78.4606 15.5174 78.2497 15.4926C79.4666 16.275 80.8831 16.6902 82.3297 16.6886C87.2269 16.6886 89.904 12.6326 89.904 9.1149C89.904 9.00061 89.9012 8.88519 89.896 8.7709C90.4168 8.39431 90.8663 7.92798 91.2235 7.39376L91.2246 7.39204Z" fill="#212529"/>
</g>
<defs>
<clipPath id="clip0_0_30">
<rect width="13.6684" height="13.6684" fill="white" transform="translate(41.1413 4.57119) scale(1.00335)"/>
</clipPath>
<clipPath id="clip1_0_30">
<rect width="13.6684" height="13.6684" fill="white" transform="translate(77.7128 4.57119) scale(1.00335)"/>
</clipPath>
</defs>
</svg>
