<svg width="12" height="12" viewBox="0 0 12 12" fill="none" xmlns="http://www.w3.org/2000/svg">
<g clip-path="url(#clip0_489_614)">
<path d="M11 10.5001C10.445 10.5001 10.135 10.3151 9.91 10.1801C9.725 10.0701 9.61 10.0001 9.335 10.0001C9.055 10.0001 8.945 10.0651 8.76 10.1801C8.53 10.3151 8.225 10.5001 7.67 10.5001C7.115 10.5001 6.805 10.3151 6.58 10.1801C6.395 10.0701 6.28 10.0001 6.005 10.0001C5.725 10.0001 5.615 10.0651 5.43 10.1801C5.2 10.3151 4.89 10.5001 4.335 10.5001C3.78 10.5001 3.47 10.3151 3.245 10.1801C3.06 10.0651 2.945 10.0001 2.67 10.0001C2.395 10.0001 2.28 10.0651 2.095 10.1801C1.865 10.3151 1.555 10.5001 1 10.5001V9.50008C1.28 9.50008 1.39 9.43508 1.575 9.32008C1.805 9.18508 2.115 9.00008 2.67 9.00008C3.225 9.00008 3.535 9.18508 3.76 9.32008C3.945 9.43508 4.055 9.50008 4.335 9.50008C4.615 9.50008 4.725 9.43508 4.91 9.32008C5.14 9.18508 5.45 9.00008 6.005 9.00008C6.56 9.00008 6.87 9.18508 7.095 9.32008C7.28 9.43008 7.395 9.50008 7.67 9.50008C7.945 9.50008 8.06 9.43508 8.245 9.32008C8.47 9.18508 8.78 9.00008 9.335 9.00008C9.89 9.00008 10.2 9.18508 10.425 9.32008C10.61 9.43508 10.72 9.50008 11 9.50008V10.5001ZM11 8.25008C10.445 8.25008 10.135 8.06508 9.91 7.93008C9.725 7.82008 9.61 7.75008 9.335 7.75008C9.055 7.75008 8.945 7.81508 8.76 7.93008C8.535 8.06508 8.225 8.25008 7.67 8.25008C7.115 8.25008 6.805 8.06508 6.58 7.93008C6.395 7.82008 6.28 7.75008 6.005 7.75008C5.725 7.75008 5.615 7.81508 5.43 7.93008C5.205 8.06508 4.895 8.25008 4.34 8.25008C3.785 8.25008 3.475 8.06508 3.25 7.93008C3.065 7.82008 2.95 7.75008 2.675 7.75008C2.4 7.75008 2.285 7.81508 2.1 7.93008C1.865 8.06508 1.555 8.25008 1 8.25008V7.25008C1.28 7.25008 1.39 7.18508 1.575 7.07008C1.8 6.93508 2.11 6.75008 2.665 6.75008C3.22 6.75008 3.53 6.93508 3.755 7.07008C3.94 7.18008 4.055 7.25008 4.33 7.25008C4.61 7.25008 4.72 7.18508 4.905 7.07008C5.13 6.93508 5.44 6.75008 5.995 6.75008C6.55 6.75008 6.86 6.93508 7.085 7.07008C7.27 7.18008 7.385 7.25008 7.66 7.25008C7.935 7.25008 8.05 7.18508 8.235 7.07008C8.46 6.93508 8.77 6.75008 9.325 6.75008C9.88 6.75008 10.19 6.93508 10.415 7.07008C10.6 7.18008 10.715 7.25008 10.99 7.25008V8.25008H11ZM4.335 6.00008C4.615 6.00008 4.725 5.93508 4.91 5.82008C5.14 5.68508 5.45 5.50008 6.005 5.50008C6.56 5.50008 6.87 5.68508 7.095 5.82008C7.28 5.93008 7.395 6.00008 7.67 6.00008C7.945 6.00008 8.06 5.93508 8.245 5.82008C8.305 5.78508 8.375 5.74508 8.45 5.70508L5.24 2.50008C4.465 1.72508 3.75 1.49508 2.5 1.50008V2.75008C3.41 2.74508 3.945 2.94508 4.5 3.50008L5 4.00008L3.375 5.62508C3.53 5.68508 3.655 5.76008 3.76 5.82008C3.945 5.93508 4.055 6.00008 4.335 6.00008Z" fill="#8F8F8F"/>
<path d="M8.25 4C8.94036 4 9.5 3.44036 9.5 2.75C9.5 2.05964 8.94036 1.5 8.25 1.5C7.55964 1.5 7 2.05964 7 2.75C7 3.44036 7.55964 4 8.25 4Z" fill="#8F8F8F"/>
</g>
<defs>
<clipPath id="clip0_489_614">
<rect width="12" height="12" fill="white"/>
</clipPath>
</defs>
</svg>
