<svg width="120" height="24" viewBox="0 0 120 24" fill="none" xmlns="http://www.w3.org/2000/svg">
<path d="M21.2841 8.27657L15.3333 7.41173L12.6731 2.01876C12.6005 1.8711 12.4809 1.75157 12.3333 1.67891C11.963 1.4961 11.513 1.64845 11.3278 2.01876L8.66766 7.41173L2.71688 8.27657C2.55282 8.30001 2.40281 8.37735 2.28797 8.49454C2.14913 8.63724 2.07262 8.82923 2.07526 9.02831C2.0779 9.22739 2.15946 9.41728 2.30203 9.55626L6.6075 13.7539L5.59031 19.6813C5.56646 19.8191 5.58172 19.961 5.63436 20.0906C5.687 20.2203 5.77491 20.3326 5.88813 20.4148C6.00135 20.497 6.13535 20.5459 6.27492 20.5558C6.4145 20.5658 6.55407 20.5364 6.67781 20.4711L12.0005 17.6727L17.3231 20.4711C17.4684 20.5484 17.6372 20.5742 17.7989 20.5461C18.2067 20.4758 18.4809 20.0891 18.4106 19.6813L17.3934 13.7539L21.6989 9.55626C21.8161 9.44142 21.8934 9.29142 21.9169 9.12735C21.9802 8.7172 21.6942 8.33751 21.2841 8.27657Z" fill="#FFCD46"/>
<path d="M45.2841 8.27657L39.3333 7.41173L36.6731 2.01876C36.6005 1.8711 36.4809 1.75157 36.3333 1.67891C35.963 1.4961 35.513 1.64845 35.3278 2.01876L32.6677 7.41173L26.7169 8.27657C26.5528 8.30001 26.4028 8.37735 26.288 8.49454C26.1491 8.63724 26.0726 8.82923 26.0753 9.02831C26.0779 9.22739 26.1595 9.41728 26.302 9.55626L30.6075 13.7539L29.5903 19.6813C29.5665 19.8191 29.5817 19.961 29.6344 20.0906C29.687 20.2203 29.7749 20.3326 29.8881 20.4148C30.0014 20.497 30.1353 20.5459 30.2749 20.5558C30.4145 20.5658 30.5541 20.5364 30.6778 20.4711L36.0005 17.6727L41.3231 20.4711C41.4684 20.5484 41.6372 20.5742 41.7989 20.5461C42.2067 20.4758 42.4809 20.0891 42.4106 19.6813L41.3934 13.7539L45.6989 9.55626C45.8161 9.44142 45.8934 9.29142 45.9169 9.12735C45.9802 8.7172 45.6942 8.33751 45.2841 8.27657Z" fill="#FFCD46"/>
<path d="M69.2841 8.27657L63.3333 7.41173L60.6731 2.01876C60.6005 1.8711 60.4809 1.75157 60.3333 1.67891C59.963 1.4961 59.513 1.64845 59.3278 2.01876L56.6677 7.41173L50.7169 8.27657C50.5528 8.30001 50.4028 8.37735 50.288 8.49454C50.1491 8.63724 50.0726 8.82923 50.0753 9.02831C50.0779 9.22739 50.1595 9.41728 50.302 9.55626L54.6075 13.7539L53.5903 19.6813C53.5665 19.8191 53.5817 19.961 53.6344 20.0906C53.687 20.2203 53.7749 20.3326 53.8881 20.4148C54.0014 20.497 54.1353 20.5459 54.2749 20.5558C54.4145 20.5658 54.5541 20.5364 54.6778 20.4711L60.0005 17.6727L65.3231 20.4711C65.4684 20.5484 65.6372 20.5742 65.7989 20.5461C66.2067 20.4758 66.4809 20.0891 66.4106 19.6813L65.3934 13.7539L69.6989 9.55626C69.8161 9.44142 69.8934 9.29142 69.9169 9.12735C69.9802 8.7172 69.6942 8.33751 69.2841 8.27657Z" fill="#FFCD46"/>
<path d="M93.2841 8.27657L87.3333 7.41173L84.6731 2.01876C84.6005 1.8711 84.4809 1.75157 84.3333 1.67891C83.963 1.4961 83.513 1.64845 83.3278 2.01876L80.6677 7.41173L74.7169 8.27657C74.5528 8.30001 74.4028 8.37735 74.288 8.49454C74.1491 8.63724 74.0726 8.82923 74.0753 9.02831C74.0779 9.22739 74.1595 9.41728 74.302 9.55626L78.6075 13.7539L77.5903 19.6813C77.5665 19.8191 77.5817 19.961 77.6344 20.0906C77.687 20.2203 77.7749 20.3326 77.8881 20.4148C78.0014 20.497 78.1353 20.5459 78.2749 20.5558C78.4145 20.5658 78.5541 20.5364 78.6778 20.4711L84.0005 17.6727L89.3231 20.4711C89.4684 20.5484 89.6372 20.5742 89.7989 20.5461C90.2067 20.4758 90.4809 20.0891 90.4106 19.6813L89.3934 13.7539L93.6989 9.55626C93.8161 9.44142 93.8934 9.29142 93.9169 9.12735C93.9802 8.7172 93.6942 8.33751 93.2841 8.27657Z" fill="#FFCD46"/>
<path d="M117.284 8.27657L111.333 7.41173L108.673 2.01876C108.6 1.8711 108.481 1.75157 108.333 1.67891C107.963 1.4961 107.513 1.64845 107.328 2.01876L104.668 7.41173L98.7169 8.27657C98.5528 8.30001 98.4028 8.37735 98.288 8.49454C98.1491 8.63724 98.0726 8.82923 98.0753 9.02831C98.0779 9.22739 98.1595 9.41728 98.302 9.55626L102.608 13.7539L101.59 19.6813C101.566 19.8191 101.582 19.961 101.634 20.0906C101.687 20.2203 101.775 20.3326 101.888 20.4148C102.001 20.497 102.135 20.5459 102.275 20.5558C102.414 20.5658 102.554 20.5364 102.678 20.4711L108 17.6727L113.323 20.4711C113.468 20.5484 113.637 20.5742 113.799 20.5461C114.207 20.4758 114.481 20.0891 114.411 19.6813L113.393 13.7539L117.699 9.55626C117.816 9.44142 117.893 9.29142 117.917 9.12735C117.98 8.7172 117.694 8.33751 117.284 8.27657Z" fill="#FFCD46"/>
</svg>
