<svg width="120" height="20" viewBox="0 0 120 20" fill="none" xmlns="http://www.w3.org/2000/svg">
<g clip-path="url(#clip0_0_41)">
<path d="M35.943 7.11006C35.4881 6.86854 34.8742 6.697 34.1372 6.697C32.4105 6.697 31.3722 7.50846 30.9546 7.83688L31.5764 4.16895H29.1274L27.4232 14.2134H29.8722L30.8 8.73975C31.4117 8.27026 32.1543 7.87186 32.9669 7.87186C33.389 7.87186 33.7535 7.99939 33.9927 8.2127C34.4397 8.61109 34.3573 9.20812 34.241 9.8943L33.5086 14.2168H35.9576L36.7747 9.39772C36.8829 8.75781 37.0535 7.74997 35.9475 7.11796L35.943 7.11006ZM42.4211 6.61122C39.6335 6.61122 38.6854 7.86396 38.155 8.56369L38.7396 8.80521C39.1719 8.42149 39.9472 7.72402 41.516 7.72402C42.2134 7.72402 43.2314 7.90911 43.5361 8.67768C43.658 8.98127 43.6546 9.30631 43.6233 9.6257H43.676L43.2923 11.8829H43.2503L43.1069 12.7271C42.5889 12.9686 41.9558 13.2541 41.0868 13.2541C39.8566 13.2541 39.5067 12.586 39.6196 11.9562C39.7765 11.0308 40.8046 10.5906 41.8881 10.5906C42.221 10.5906 42.5065 10.627 42.7684 10.6829L42.9478 9.62649C42.4986 9.53225 42.0438 9.46736 41.4355 9.46736C39.246 9.46736 37.3048 10.4063 37.0227 12.0857C36.8015 13.3949 37.8398 14.4219 39.7539 14.4219C41.5032 14.4219 42.5415 13.7109 42.993 13.3836L42.8541 14.2086H45.2242L45.9691 9.80706C46.0819 9.13894 46.2275 8.1706 45.4318 7.4483C44.9714 7.02169 44.0098 6.60863 42.4185 6.60863L42.4211 6.61122ZM63.8644 13.5859C63.6816 13.5859 62.9457 13.5859 62.6116 12.946C62.4694 12.7045 62.4096 12.4054 62.5132 11.7949L63.0753 8.47679H65.75L66.0119 6.93061H63.3371L63.6723 4.95558H61.2233L60.8881 6.93061H58.3149L56.0802 10.5534L55.6886 11.2373C55.5521 10.8525 55.5442 10.7814 55.4189 10.4405L54.1436 6.93061H53.3355L50.1642 11.2306C50.096 10.8751 50.0734 10.7893 50.0005 10.462L49.0547 6.92949H46.5041L48.75 14.2653H49.6495L52.8434 10.0218L54.604 14.2653H55.4855L59.2663 8.47566H60.6206L60.0089 12.0984C59.9002 12.7384 59.8836 13.3738 60.4761 13.8929C61.0991 14.4482 62.0674 14.4899 62.5076 14.4899C63.7152 14.4899 64.4375 14.1626 65.0356 13.9065L64.819 13.4516C64.5131 13.5228 64.2434 13.5938 63.8574 13.5938L63.8644 13.5859ZM68.9092 9.64714C68.8765 9.69578 68.8063 9.84916 68.7252 10.3254C68.6931 10.5116 68.6766 10.6505 68.6684 10.7577H75.1916C75.3079 9.96089 75.5189 8.61335 74.3881 7.58633C73.3983 6.70377 71.9503 6.60445 71.1377 6.60445C67.8084 6.60445 65.7543 8.34249 65.3932 10.4755C65.0151 12.7101 66.4913 14.5159 69.8737 14.5159C73.1015 14.5159 74.1172 13.0262 74.6477 12.2248L74.08 11.9969C73.3283 12.6368 72.5338 13.306 70.8296 13.306C68.3354 13.306 68.0081 11.8276 67.963 11.0714C67.9517 11.0417 67.9097 10.8897 67.9922 10.3852C68.0768 9.86947 68.1852 9.67197 68.2067 9.63585C68.6028 8.79957 69.1321 7.80753 70.8814 7.80753C72.721 7.80753 72.721 9.00384 72.721 9.65843H68.9177L68.9092 9.64714ZM25.4583 4.95219H23.0206L21.813 12.0962C21.7044 12.7361 21.6877 13.3715 22.2813 13.8907C22.9043 14.4459 23.8726 14.4877 24.3128 14.4877C25.5204 14.4877 26.2427 14.1604 26.8408 13.9042L26.6242 13.4494C26.3183 13.5206 26.0497 13.5916 25.6637 13.5916C25.4798 13.5916 24.745 13.5916 24.411 12.9517C24.2688 12.7101 24.2078 12.4111 24.3119 11.8005L24.8739 8.48243H26.849L27.1097 6.94754H25.1346L25.4583 4.95219Z" fill="white"/>
<path d="M9.51273 0C4.35505 0 0.167969 4.18708 0.167969 9.34476C0.167969 14.5024 4.35505 18.6895 9.51273 18.6895C14.6704 18.6895 18.8575 14.5024 18.8575 9.34476C18.8575 4.18708 14.6704 0 9.51273 0ZM9.51273 16.816C5.38207 16.816 2.03015 13.4641 2.03015 9.33347C2.03015 5.20282 5.38207 1.85089 9.51273 1.85089C13.6434 1.85089 16.9953 5.20282 16.9953 9.33347C16.9952 13.4641 13.6434 16.816 9.51273 16.816ZM10.4167 4.74009H7.96768L6.76009 11.8841C6.65152 12.524 6.63481 13.1594 7.22732 13.6786C7.84918 14.2338 8.81864 14.2756 9.25879 14.2756C10.4664 14.2756 11.1887 13.9483 11.7868 13.6921L11.5702 13.2361C11.2643 13.3074 10.9946 13.3795 10.6086 13.3795C10.4258 13.3795 9.68992 13.3795 9.35585 12.7384C9.21365 12.4969 9.15271 12.1978 9.25721 11.5873L9.81925 8.26921H11.7943L12.055 6.73432H10.08L10.4167 4.74009Z" fill="white"/>
<path d="M76.4601 5.63177H75.8473V7.2118H75.3394V5.63177H74.7266V5.2503H76.4646V5.63177H76.4601ZM78.8301 7.2118H78.3223V5.89135L77.96 6.74569H77.6113L77.249 5.89135V7.2118H76.7705V5.24805H77.3607L77.8009 6.23444L78.2388 5.24805H78.8301V7.2118Z" fill="white"/>
</g>
<g clip-path="url(#clip1_0_41)">
<path d="M94.2729 19.228L95.4967 13.1229H97.4879L96.271 19.228H94.2729ZM100.281 17.2299H101.546L101.221 14.9897L100.281 17.2299ZM97.4879 19.228L100.502 13.1229H102.466L103.704 19.228H101.858L101.747 18.502H99.7834L99.4722 19.228H97.4879ZM105.536 19.228L106.22 14.6371H104.478L104.775 13.0953H110.127L109.829 14.6371H108.17L107.499 19.228H105.536ZM112.229 17.2299H113.494L113.169 14.9897L112.229 17.2299ZM109.442 19.228L112.45 13.1229H114.413L115.651 19.228H113.791L113.701 18.502H111.738L111.427 19.228H109.442ZM120 6.22271H110.631C110.286 7.93739 109.097 9.3686 106.725 10.3573C106.995 11.1732 107.914 11.9268 108.868 11.9268H113.95C114.725 11.9268 115.34 11.2769 115.589 10.7514H110.424C110.106 10.6961 110.092 10.4403 110.41 10.4126H115.485C116.142 10.4126 116.737 9.85258 117.082 9.24414H111.171C110.873 9.19575 110.873 8.94684 111.171 8.89844H117.131C117.732 8.89844 118.278 8.20012 118.507 7.72997H111.966C111.641 7.68849 111.641 7.38427 111.966 7.37735H118.624C119.143 7.37735 119.647 6.8104 120 6.22271ZM90 6.22271H99.3685C99.7073 7.93739 100.903 9.3686 103.268 10.3573C102.998 11.1732 102.079 11.9268 101.125 11.9268H96.0498C95.2754 11.9268 94.6601 11.2769 94.4112 10.7514H99.5759C99.8871 10.6961 99.9078 10.4403 99.5898 10.4126H94.508C93.8511 10.4126 93.2565 9.85258 92.9177 9.24414H98.8361C99.1334 9.19575 99.1334 8.94684 98.8361 8.89844H92.8762C92.2747 8.89844 91.7285 8.20012 91.5003 7.72997H98.041C98.366 7.68849 98.366 7.38427 98.041 7.37735H91.3828C90.8573 7.37735 90.3526 6.8104 90 6.22271ZM101.961 1.07867C102.307 1.37597 102.694 1.6387 103.109 1.80464C103.462 1.11324 103.953 0.518631 104.519 -0.00683594C103.586 0.117617 102.708 0.470233 101.961 1.07867ZM100.302 4.48729H102.39C102.438 3.62995 102.618 2.87632 102.957 2.10194C102.494 1.89452 102.093 1.64562 101.705 1.31374C100.841 2.178 100.364 3.29116 100.302 4.48729ZM104.838 2.53061V4.48729H102.749C102.763 3.71983 102.943 2.93163 103.268 2.21948C103.766 2.39925 104.305 2.51679 104.838 2.53061ZM108.039 1.07867C107.7 1.37597 107.299 1.6387 106.891 1.80464C106.518 1.09941 106.054 0.532459 105.474 7.80979e-05C106.414 0.117617 107.292 0.470233 108.039 1.07867ZM109.691 4.48729H107.61C107.582 3.64377 107.389 2.85557 107.057 2.10194C107.499 1.89452 107.921 1.63179 108.288 1.31374C109.186 2.21257 109.65 3.31881 109.691 4.48729ZM105.176 2.53061V4.48729H107.251C107.251 3.69909 107.057 2.94546 106.732 2.21948C106.234 2.39925 105.702 2.51679 105.176 2.53061ZM101.961 8.24161C102.307 7.97196 102.708 7.67466 103.109 7.52946C103.482 8.22778 103.946 8.80165 104.519 9.3202C103.586 9.19575 102.694 8.84313 101.961 8.24161ZM100.302 4.82607H102.39C102.438 5.69033 102.618 6.45087 102.957 7.23216C102.494 7.43958 102.093 7.68849 101.705 8.01344C100.855 7.1561 100.364 6.04294 100.302 4.82607ZM104.838 6.78966V4.82607H102.749C102.763 5.61427 102.943 6.39556 103.268 7.09388C103.766 6.91411 104.305 6.80349 104.838 6.78966ZM108.039 8.24161C107.714 7.95813 107.299 7.6954 106.891 7.52946C106.518 8.22778 106.054 8.80165 105.474 9.3202C106.414 9.19575 107.292 8.84313 108.039 8.24161ZM109.691 4.82607H107.61C107.582 5.69033 107.396 6.45779 107.057 7.23216C107.499 7.43958 107.9 7.68849 108.288 8.01344C109.145 7.1561 109.65 6.01529 109.691 4.82607ZM105.176 6.78966V4.82607H107.251C107.251 5.61427 107.057 6.38173 106.732 7.09388C106.248 6.91411 105.688 6.80349 105.176 6.78966ZM104.838 0.193671C104.271 0.649997 103.766 1.27226 103.434 1.92218C103.883 2.07429 104.36 2.19874 104.838 2.19874V0.193671ZM105.176 0.193671C105.729 0.649997 106.234 1.25152 106.566 1.92218C106.117 2.08812 105.64 2.19874 105.176 2.19874V0.193671ZM104.838 9.12661C104.271 8.67719 103.766 8.05493 103.434 7.39118C103.883 7.23216 104.36 7.14228 104.838 7.14228V9.12661ZM105.176 9.14043C105.729 8.67719 106.234 8.05493 106.566 7.39118C106.117 7.24599 105.64 7.14228 105.176 7.14228V9.14043Z" fill="white"/>
</g>
<defs>
<clipPath id="clip0_0_41">
<rect width="79" height="18.7347" fill="white"/>
</clipPath>
<clipPath id="clip1_0_41">
<rect width="30" height="19.2279" fill="white" transform="translate(90)"/>
</clipPath>
</defs>
</svg>
