<svg width="12" height="12" viewBox="0 0 12 12" fill="none" xmlns="http://www.w3.org/2000/svg">
<g clip-path="url(#clip0_489_603)">
<path d="M10.285 7.43L11 6.715L10.285 6L8.5 7.785L4.215 3.5L6 1.715L5.285 1L4.57 1.715L3.855 1L2.785 2.07L2.07 1.355L1.355 2.07L2.07 2.785L1 3.855L1.715 4.57L1 5.285L1.715 6L3.5 4.215L7.785 8.5L6 10.285L6.715 11L7.43 10.285L8.145 11L9.215 9.93L9.93 10.645L10.645 9.93L9.93 9.215L11 8.145L10.285 7.43Z" fill="#8F8F8F"/>
</g>
<defs>
<clipPath id="clip0_489_603">
<rect width="12" height="12" fill="white"/>
</clipPath>
</defs>
</svg>
