<svg width="268" height="28" viewBox="0 0 268 28" fill="none" xmlns="http://www.w3.org/2000/svg">
<path fill-rule="evenodd" clip-rule="evenodd" d="M16 13V17H267V13H16Z" fill="black" fill-opacity="0.26"/>
<path fill-rule="evenodd" clip-rule="evenodd" d="M16 13V17H267V13H16Z" fill="#FAB71E"/>
<path fill-rule="evenodd" clip-rule="evenodd" d="M13.6547 0C6.14462 0 0 6.3 0 14C0 21.7 6.14462 28 13.6547 28C21.1648 28 27.3094 21.7 27.3094 14C27.3094 6.3 21.1648 0 13.6547 0Z" fill="white"/>
<path fill-rule="evenodd" clip-rule="evenodd" d="M13.655 5C8.82707 5 4.87695 9.05 4.87695 14C4.87695 18.95 8.82707 23 13.655 23C18.4829 23 22.433 18.95 22.433 14C22.433 9.05 18.4829 5 13.655 5Z" fill="#FAB71E"/>
<path fill-rule="evenodd" clip-rule="evenodd" d="M253.655 0C246.145 0 240 6.3 240 14C240 21.7 246.145 28 253.655 28C261.165 28 267.309 21.7 267.309 14C267.309 6.3 261.165 0 253.655 0Z" fill="white"/>
<path fill-rule="evenodd" clip-rule="evenodd" d="M253.778 5C248.95 5 245 9.05 245 14C245 18.95 248.95 23 253.778 23C258.606 23 262.556 18.95 262.556 14C262.556 9.05 258.606 5 253.778 5Z" fill="#FAB71E"/>
</svg>
