<svg width="15" height="19" viewBox="0 0 15 19" fill="none" xmlns="http://www.w3.org/2000/svg">
<path d="M4.89251 13.0401C5.0878 12.8588 5.20861 12.6084 5.20843 12.332L5.20917 3.41946L6.41877 4.54241C6.84012 4.93358 7.52312 4.93361 7.94451 4.5425C8.36591 4.15138 8.36594 3.51736 7.9446 3.1262L4.89329 0.293447C4.47195 -0.0977168 3.78894 -0.0977531 3.36755 0.293365L0.315888 3.1258C-0.105504 3.51691 -0.105543 4.15093 0.315801 4.54209C0.737144 4.93325 1.42015 4.93329 1.84154 4.54217L3.05128 3.41934L3.05093 12.3319C3.0509 12.8851 3.53382 13.3334 4.12962 13.3333C4.42741 13.3335 4.69721 13.2214 4.89251 13.0401Z" fill="#010080"/>
<path d="M14.0468 14.4577C13.6254 14.0666 12.9424 14.0665 12.521 14.4577L11.3113 15.5805L11.3117 6.66797C11.3117 6.11473 10.8288 5.66639 10.233 5.66655C9.63718 5.66633 9.15419 6.11461 9.15416 6.66785L9.15341 15.5804L7.94381 14.4574C7.52247 14.0663 6.83946 14.0662 6.41807 14.4573C5.99668 14.8485 5.99664 15.4825 6.41798 15.8736L9.4693 18.7064C9.89064 19.0975 10.5736 19.0976 10.995 18.7065L14.0467 15.874C14.4681 15.4829 14.4681 14.8489 14.0468 14.4577Z" fill="#010080"/>
</svg>
